<?xml version="1.0" ?><svg id="Layer_1" style="enable-background:new 0 0 1024 1024;" version="1.1" viewBox="0 0 1024 1024" xml:space="preserve" xmlns="http://www.w3.org/2000/svg" xmlns:xlink="http://www.w3.org/1999/xlink"><g id="XMLID_556_"><path d="M258.8,345L225.5,323c24.2-36.6,54.8-67.9,90.9-93l22.8,32.8C307.3,285,280.2,312.7,258.8,345z" id="XMLID_43_"/><path d="M209.3,494l-39.9-2.3c2.6-44,13.4-86.4,32.1-126.1l36.2,17.1C221.1,417.6,211.6,455.1,209.3,494z" id="XMLID_42_"/><path d="M205,665.7c-19.7-39.3-31.5-81.4-35.1-125.3l39.9-3.3c3.2,38.8,13.6,76,31,110.7L205,665.7z" id="XMLID_41_"/><path d="M323,798.5c-36.6-24.2-67.9-54.8-93-90.9l32.8-22.8c22.2,31.9,49.9,59,82.2,80.4L323,798.5z" id="XMLID_40_"/><path d="M491.6,854.6c-44-2.6-86.4-13.4-126.1-32.1l17.1-36.2c35,16.6,72.5,26.1,111.4,28.4L491.6,854.6z" id="XMLID_39_"/><path d="M540.4,854.1l-3.3-39.9c38.8-3.2,76-13.6,110.7-31l17.9,35.8C626.4,838.7,584.3,850.5,540.4,854.1z" id="XMLID_38_"/><path d="M707.6,794l-22.8-32.8c31.9-22.2,59-49.9,80.4-82.2l33.4,22.1C774.3,737.6,743.7,768.9,707.6,794z" id="XMLID_37_"/><path d="M822.5,658.5l-36.2-17.1c16.6-35,26.1-72.5,28.4-111.3l39.9,2.3C852,576.4,841.2,618.8,822.5,658.5z" id="XMLID_36_"/><path d="M814.2,486.9c-3.2-38.8-13.6-76-31-110.7l35.8-17.9c19.7,39.3,31.5,81.4,35.1,125.3L814.2,486.9z" id="XMLID_35_"/><path d="M761.2,339.2c-22.2-31.9-49.9-59-82.2-80.4l22.1-33.4c36.6,24.2,67.9,54.8,93,90.9L761.2,339.2z" id="XMLID_34_"/><path d="M641.4,237.7c-35-16.6-72.5-26.1-111.4-28.4l2.3-39.9c44,2.6,86.4,13.4,126.1,32.1L641.4,237.7z" id="XMLID_33_"/><path d="M376.2,240.8L358.3,205c39.3-19.7,81.4-31.5,125.3-35.1l3.3,39.9C448.1,213,410.9,223.4,376.2,240.8z" id="XMLID_32_"/><path d="M551.2,233.3h-40v-62.2c0-21.5,10.1-41.8,27.1-54.5c3.2-2.4,4.7-4.7,4.7-5.9c0-3.6-12-14.2-34.8-14.2   c-22.8,0-34.8,10.5-34.8,14.2c0,1.1,1.5,3.5,4.7,5.9c17,12.6,27.1,33,27.1,54.5v62.2h-40v-62.2c0-8.9-4.1-17.3-11-22.4   c-13.4-10-20.8-23.5-20.8-38c0-30.4,32.8-54.2,74.8-54.2c41.9,0,74.8,23.8,74.8,54.2c0,14.5-7.4,28-20.8,38   c-6.9,5.1-11,13.5-11,22.4V233.3z" id="XMLID_31_"/><path d="M515.8,967.4c-41.9,0-74.8-23.8-74.8-54.2c0-14.5,7.4-28,20.8-38c6.9-5.1,11-13.5,11-22.4v-62.2h40v62.2   c0,21.5-10.1,41.8-27.1,54.5c-3.2,2.4-4.7,4.7-4.7,5.9c0,3.6,12,14.2,34.8,14.2c22.8,0,34.8-10.5,34.8-14.2c0-1.1-1.5-3.5-4.7-5.9   c-17-12.6-27.1-33-27.1-54.5v-62.2h40v62.2c0,8.9,4.1,17.3,11,22.4c13.4,10,20.8,23.5,20.8,38C590.5,943.6,557.7,967.4,515.8,967.4   z" id="XMLID_30_"/><path d="M110.8,590.5c-30.4,0-54.2-32.8-54.2-74.8c0-41.9,23.8-74.8,54.2-74.8c14.5,0,28,7.4,38,20.8   c5.1,6.9,13.5,11,22.4,11h62.2v40h-62.2c-21.5,0-41.8-10.1-54.5-27.1c-2.4-3.2-4.7-4.7-5.9-4.7c-3.6,0-14.2,12-14.2,34.8   c0,22.8,10.5,34.8,14.2,34.8c1.1,0,3.5-1.5,5.9-4.7c12.6-17,33-27.1,54.5-27.1h62.2v40h-62.2c-8.9,0-17.3,4.1-22.4,11   C138.8,583.1,125.3,590.5,110.8,590.5z" id="XMLID_29_"/><path d="M913.2,583c-14.5,0-28-7.4-38-20.8c-5.1-6.9-13.5-11-22.4-11h-62.2v-40h62.2c21.5,0,41.8,10.1,54.5,27.1   c2.4,3.2,4.7,4.7,5.9,4.7c3.6,0,14.2-12,14.2-34.8c0-22.8-10.5-34.8-14.2-34.8c-1.1,0-3.5,1.5-5.9,4.7c-12.6,17-33,27.1-54.5,27.1   h-62.2v-40h62.2c8.9,0,17.3-4.1,22.4-11c10-13.4,23.5-20.8,38-20.8c30.4,0,54.2,32.8,54.2,74.8C967.4,550.2,943.6,583,913.2,583z" id="XMLID_28_"/><path d="M332.2,294l-31.1-53.8c-4.4-7.7-12.2-12.9-20.7-13.9c-16.6-1.9-29.8-9.9-37-22.5   c-15.2-26.3,1.4-63.3,37.7-84.3c15.9-9.2,33.3-13.9,49.2-13.4c19.1,0.7,34.6,9,42.6,22.9c7.2,12.5,7.6,27.9,1,43.2   c-3.4,7.9-2.8,17.2,1.7,24.9l31.1,53.8L372,271l-31.1-53.8c-10.7-18.6-12.1-41.3-3.8-60.7c1.6-3.7,1.7-6.4,1.1-7.4   c-0.6-1.1-3.6-2.7-9.3-2.9c-8.4-0.3-18.5,2.6-27.9,8c-19.8,11.4-24.9,26.5-23,29.6c0.6,1,3,2.3,7,2.7c21,2.5,40,15,50.7,33.6   l31.1,53.8L332.2,294z" id="XMLID_27_"/><path d="M696.2,917.9c-0.8,0-1.6,0-2.5,0c-19.1-0.7-34.6-9-42.6-22.9c-7.2-12.5-7.6-27.9-1-43.2   c3.4-7.9,2.8-17.2-1.7-24.9L617.4,773l34.6-20l31.1,53.8c10.7,18.6,12.1,41.3,3.8,60.7c-1.6,3.7-1.7,6.4-1.1,7.4   c0.6,1.1,3.6,2.7,9.3,2.9c8.4,0.3,18.5-2.6,27.9-8c19.8-11.4,24.9-26.5,23-29.6c-0.6-1-3-2.3-7-2.7c-21-2.5-40-15-50.7-33.6   L657.2,750l34.6-20l31.1,53.8c4.5,7.7,12.2,12.9,20.7,13.9c16.6,1.9,29.8,9.9,37,22.5c15.2,26.3-1.4,63.3-37.7,84.3   C727.9,913.2,711.4,917.9,696.2,917.9z" id="XMLID_26_"/><path d="M182.4,786.2c-22.5,0-47.2-16.1-62.9-43.3c-9.2-15.9-13.9-33.3-13.4-49.2c0.7-19.1,9-34.6,22.9-42.6   c12.5-7.2,27.9-7.6,43.2-1c7.9,3.4,17.2,2.8,24.9-1.7l53.8-31.1l20,34.6l-53.8,31.1c-18.6,10.7-41.3,12.1-60.7,3.8   c-3.7-1.6-6.4-1.7-7.4-1.1c-1.1,0.6-2.7,3.6-2.9,9.3c-0.3,8.4,2.6,18.5,8,27.9c11.4,19.8,26.5,24.9,29.6,23c1-0.6,2.3-3,2.7-7   c2.5-21,15-40,33.6-50.7l53.8-31.1l20,34.6l-53.8,31.1c-7.7,4.5-12.9,12.2-13.9,20.7c-1.9,16.6-9.9,29.8-22.5,37   C197.2,784.4,189.9,786.2,182.4,786.2z" id="XMLID_25_"/><path d="M773,406.6L753,372l53.8-31.1c18.6-10.7,41.3-12.1,60.7-3.8c3.7,1.6,6.4,1.7,7.4,1.1   c1.1-0.6,2.7-3.6,2.9-9.3c0.3-8.4-2.6-18.5-8-27.9c-11.4-19.8-26.5-24.9-29.6-23c-1,0.6-2.3,3-2.7,7c-2.5,21-15,40-33.6,50.7   L750,366.8l-20-34.6l53.8-31.1c7.7-4.4,12.9-12.2,13.9-20.7c1.9-16.6,9.9-29.8,22.5-37c26.3-15.2,63.3,1.4,84.3,37.7   c9.2,15.9,13.9,33.3,13.4,49.2c-0.7,19.1-9,34.6-22.9,42.6c-12.5,7.2-27.9,7.6-43.2,1c-7.9-3.4-17.2-2.8-24.9,1.7L773,406.6z" id="XMLID_24_"/><path d="M247.3,413.1L193.4,382c-7.7-4.4-17-5.1-24.9-1.7c-15.4,6.6-30.7,6.3-43.3-1c-13.9-8-22.2-23.5-22.9-42.6   c-0.5-15.9,4.2-33.4,13.4-49.2c21-36.3,58-52.9,84.3-37.7c12.6,7.2,20.5,20.4,22.5,37c1,8.5,6.2,16.3,13.9,20.7l53.8,31.1l-20,34.6   l-53.8-31.1c-18.6-10.7-31.2-29.7-33.6-50.7c-0.5-4-1.7-6.5-2.7-7c-3.1-1.8-18.2,3.3-29.6,23c-5.4,9.3-8.3,19.5-8,27.9   c0.2,5.7,1.8,8.7,2.9,9.3c1,0.6,3.7,0.5,7.5-1.1c19.4-8.4,42.1-7,60.7,3.8l53.8,31.1L247.3,413.1z" id="XMLID_23_"/><path d="M845.4,779.7c-7.5,0-14.8-1.8-21.4-5.6c-12.6-7.2-20.5-20.4-22.5-37c-1-8.5-6.2-16.3-13.9-20.7l-53.8-31.1   l20-34.6l53.8,31.1c18.6,10.7,31.2,29.7,33.6,50.7c0.5,4,1.7,6.5,2.7,7c3.1,1.8,18.2-3.3,29.6-23c5.4-9.3,8.3-19.5,8-27.9   c-0.2-5.7-1.8-8.7-2.9-9.3c-1-0.6-3.7-0.5-7.5,1.1c-19.4,8.4-42.1,7-60.7-3.8l-53.8-31.1l20-34.6l53.8,31.1   c7.7,4.4,17,5.1,24.9,1.7c15.4-6.6,30.7-6.3,43.3,1c13.9,8,22.2,23.5,22.9,42.6c0.5,15.9-4.2,33.4-13.4,49.2   C892.5,763.6,867.8,779.7,845.4,779.7z" id="XMLID_22_"/><path d="M334.3,921.7c-15.2,0-31.7-4.7-46.8-13.4c-36.3-21-52.9-58-37.7-84.3c7.2-12.5,20.4-20.5,37-22.5   c8.5-1,16.3-6.2,20.7-13.9l31.1-53.8l34.6,20l-31.1,53.8c-10.7,18.6-29.7,31.2-50.7,33.6c-4,0.5-6.5,1.7-7,2.7   c-1.8,3.1,3.3,18.2,23,29.6c9.3,5.4,19.5,8.3,27.9,8c5.7-0.2,8.7-1.8,9.3-2.9c0.6-1,0.5-3.7-1.1-7.5c-8.4-19.4-7-42.1,3.8-60.7   l31.1-53.8l34.6,20L382,830.6c-4.4,7.7-5.1,17-1.7,24.9c6.6,15.4,6.3,30.7-1,43.3c-8,13.9-23.5,22.2-42.6,22.9   C336,921.6,335.2,921.7,334.3,921.7z" id="XMLID_21_"/><path d="M685.3,290.2l-34.6-20l31.1-53.8c10.7-18.6,29.7-31.2,50.7-33.6c4-0.5,6.5-1.7,7-2.7   c1.8-3.1-3.3-18.2-23-29.6c-9.3-5.4-19.5-8.3-27.9-8c-5.7,0.2-8.7,1.8-9.3,2.9c-0.6,1-0.5,3.7,1.1,7.5c8.4,19.4,7,42.1-3.8,60.7   l-31.1,53.8l-34.6-20l31.1-53.8c4.4-7.7,5.1-17,1.7-24.9c-6.6-15.4-6.3-30.7,1-43.3c8-13.9,23.5-22.2,42.6-22.9   c15.9-0.6,33.4,4.2,49.2,13.4c36.3,21,52.9,58,37.7,84.3c-7.2,12.6-20.4,20.5-37,22.5c-8.5,1-16.3,6.2-20.7,13.9L685.3,290.2z" id="XMLID_20_"/><path d="M485.4,415.7c-35.5,0-64.4-28.9-64.4-64.4s28.9-64.4,64.4-64.4s64.4,28.9,64.4,64.4   S520.9,415.7,485.4,415.7z M485.4,326.9c-13.5,0-24.4,11-24.4,24.4s11,24.4,24.4,24.4c13.5,0,24.4-11,24.4-24.4   S498.9,326.9,485.4,326.9z" id="XMLID_17_"/><path d="M521.2,584.4c-35.5,0-64.4-28.9-64.4-64.4s28.9-64.4,64.4-64.4s64.4,28.9,64.4,64.4   S556.7,584.4,521.2,584.4z M521.2,495.5c-13.5,0-24.4,11-24.4,24.4c0,13.5,11,24.4,24.4,24.4c13.5,0,24.4-11,24.4-24.4   C545.6,506.5,534.7,495.5,521.2,495.5z" id="XMLID_14_"/><path d="M665,503.5c-35.5,0-64.4-28.9-64.4-64.4s28.9-64.4,64.4-64.4s64.4,28.9,64.4,64.4S700.5,503.5,665,503.5z    M665,414.6c-13.5,0-24.4,11-24.4,24.4s11,24.4,24.4,24.4c13.5,0,24.4-11,24.4-24.4S678.4,414.6,665,414.6z" id="XMLID_11_"/><path d="M349.9,558.1c-35.5,0-64.4-28.9-64.4-64.4s28.9-64.4,64.4-64.4s64.4,28.9,64.4,64.4S385.4,558.1,349.9,558.1   z M349.9,469.3c-13.5,0-24.4,11-24.4,24.4s11,24.4,24.4,24.4c13.5,0,24.4-11,24.4-24.4S363.4,469.3,349.9,469.3z" id="XMLID_8_"/><path d="M448.4,728.8c-35.5,0-64.4-28.9-64.4-64.4s28.9-64.4,64.4-64.4s64.4,28.9,64.4,64.4S483.9,728.8,448.4,728.8   z M448.4,639.9c-13.5,0-24.4,11-24.4,24.4c0,13.5,11,24.4,24.4,24.4s24.4-11,24.4-24.4C472.8,650.8,461.9,639.9,448.4,639.9z" id="XMLID_5_"/><path d="M652.1,676.3c-35.5,0-64.4-28.9-64.4-64.4s28.9-64.4,64.4-64.4s64.4,28.9,64.4,64.4S687.6,676.3,652.1,676.3   z M652.1,587.4c-13.5,0-24.4,11-24.4,24.4s11,24.4,24.4,24.4c13.5,0,24.4-11,24.4-24.4S665.5,587.4,652.1,587.4z" id="XMLID_2_"/></g></svg>